<?xml version="1.0" encoding="utf-8" ?><svg xmlns="http://www.w3.org/2000/svg" xmlns:xlink="http://www.w3.org/1999/xlink" width="580" height="386" viewBox="0 0 580 386"><defs><linearGradient id="gradient_0" gradientUnits="userSpaceOnUse" x1="334.32654" y1="206.22771" x2="259.06708" y2="179.73363"><stop offset="0" stop-color="#FE218B"/><stop offset="1" stop-color="#FE21A3"/></linearGradient></defs><path fill="url(#gradient_0)" d="M314.279 119.724C329.759 112.416 351.036 108.526 367.691 113.871C379.819 117.018 390.55 126.087 396.783 136.8C400.214 142.698 403.794 151.745 404.239 158.597C404.577 161.513 405.013 164.552 404.925 167.475C405.008 171.606 405.13 175.669 404.607 179.781C404.324 187.28 402.554 194.326 400.552 201.509C394.111 224.619 382.763 247.564 364.884 263.969C353.74 274.193 339.687 281.917 324.552 283.947C317.223 285.548 308.051 283.878 301.268 280.864C292.084 275.748 289.219 269.496 285.75 260.248C268.645 272.471 246.042 277.983 225.565 272.183C222.532 271.178 219.589 269.922 216.765 268.428C200.165 259.677 187.703 242.43 181.05 225.246C169.539 195.515 174.831 160.702 189.388 133.094C190.105 133.966 190.4 135.327 190.73 136.437C196.264 144.064 199.494 148.94 209.094 152.629C211.392 153.513 215.586 154.46 217.471 155.594C216.407 158.312 215.508 160.695 214.612 163.468C215.512 163.686 216.415 163.888 217.321 164.074C234.098 167.471 252.84 162.112 266.913 152.794C266.635 150.139 266.75 146.464 266.509 143.435C268.3 142.511 273.377 138.051 275.478 136.532C285.51 129.28 301.136 118.39 313.356 116.273L314.279 119.724ZM336.048 204.915C334.503 207.047 333.524 208.575 332.209 210.87C332.636 216.659 332.954 226.214 339.647 228.356C340.527 228.541 341.281 228.366 342.095 228.013C355.603 222.157 372.291 197.754 366.786 183.101C364.929 180.297 364.29 179.59 361.598 177.583C351.809 185.415 343.203 194.621 336.048 204.915Z"/><defs><linearGradient id="gradient_1" gradientUnits="userSpaceOnUse" x1="287.85648" y1="223.73294" x2="170.58833" y2="190.48192"><stop offset="0" stop-color="#FED700"/><stop offset="1" stop-color="#F419FF"/></linearGradient></defs><path fill="url(#gradient_1)" d="M189.388 133.094C190.105 133.966 190.4 135.327 190.73 136.437C196.264 144.064 199.494 148.94 209.094 152.629C211.392 153.513 215.586 154.46 217.471 155.594C216.407 158.312 215.508 160.695 214.612 163.468C215.512 163.686 216.415 163.888 217.321 164.074C234.098 167.471 252.84 162.112 266.913 152.794L268.177 152.175C270.928 154.189 273.413 158.461 276.021 160.974C284.209 168.861 291.915 176.47 299.511 184.943L299.839 185.663C296.108 188.19 291.55 191.988 287.875 194.813C282.789 198.752 277.57 202.517 272.228 206.1C270.52 207.27 258.855 213.941 258.646 214.442C251.486 231.555 240.907 247.007 231.411 263.07C230.224 265.103 228.981 267.103 227.683 269.067C227.198 269.798 225.847 271.602 225.565 272.183C222.532 271.178 219.589 269.922 216.765 268.428C200.165 259.677 187.703 242.43 181.05 225.246C169.539 195.515 174.831 160.702 189.388 133.094Z"/><path fill="#F419FF" d="M190.73 136.437C196.264 144.064 199.494 148.94 209.094 152.629C211.392 153.513 215.586 154.46 217.471 155.594C216.407 158.312 215.508 160.695 214.612 163.468C200.624 159.123 191.858 151.964 190.73 136.437Z"/><defs><linearGradient id="gradient_2" gradientUnits="userSpaceOnUse" x1="380.60965" y1="244.50465" x2="359.77753" y2="228.91273"><stop offset="0" stop-color="#F419FF"/><stop offset="1" stop-color="#FF1974"/></linearGradient></defs><path fill="url(#gradient_2)" d="M366.786 183.101C377.451 177.252 384.189 175.004 396.367 177.852C398.035 178.256 402.459 179.594 403.733 179.616L404.607 179.781C404.324 187.28 402.554 194.326 400.552 201.509C394.111 224.619 382.763 247.564 364.884 263.969C353.74 274.193 339.687 281.917 324.552 283.947C317.223 285.548 308.051 283.878 301.268 280.864C302.896 279.168 305.165 277.248 306.924 275.625C316.839 266.477 324.537 255.423 331.221 243.764C334.096 238.749 336.597 233.346 339.647 228.356C340.527 228.541 341.281 228.366 342.095 228.013C355.603 222.157 372.291 197.754 366.786 183.101Z"/><defs><linearGradient id="gradient_3" gradientUnits="userSpaceOnUse" x1="358.76257" y1="236.17891" x2="339.29453" y2="221.6626"><stop offset="0" stop-color="#80F"/><stop offset="1" stop-color="#98D920"/></linearGradient></defs><path fill="url(#gradient_3)" d="M366.786 183.101C377.451 177.252 384.189 175.004 396.367 177.852C396.828 178.401 396.912 178.5 397.59 178.726L397.652 179.029L397.394 179.365L397.072 179.237C392.319 189.972 384.567 199.149 376.061 207.147C374.779 208.352 371.135 216.072 370.048 218.049C362.767 231.297 353.226 242.054 342.138 252.202C341.012 253.233 340.344 255.813 339.656 257.163C335.539 265.43 328.117 271.658 323.799 280.239C323.834 281.493 323.714 282.995 324.552 283.947C317.223 285.548 308.051 283.878 301.268 280.864C302.896 279.168 305.165 277.248 306.924 275.625C316.839 266.477 324.537 255.423 331.221 243.764C334.096 238.749 336.597 233.346 339.647 228.356C340.527 228.541 341.281 228.366 342.095 228.013C355.603 222.157 372.291 197.754 366.786 183.101Z"/><defs><linearGradient id="gradient_4" gradientUnits="userSpaceOnUse" x1="402.05405" y1="179.59903" x2="347.57324" y2="159.51534"><stop offset="0" stop-color="#21B0FE"/><stop offset="1" stop-color="#FE2390"/></linearGradient></defs><path fill="url(#gradient_4)" d="M367.691 113.871C379.819 117.018 390.55 126.087 396.783 136.8C400.214 142.698 403.794 151.745 404.239 158.597C404.577 161.513 405.013 164.552 404.925 167.475C405.008 171.606 405.13 175.669 404.607 179.781L403.733 179.616C402.459 179.594 398.035 178.256 396.367 177.852C384.189 175.004 377.451 177.252 366.786 183.101C364.929 180.297 364.29 179.59 361.598 177.583C351.809 185.415 343.203 194.621 336.048 204.915C332.789 204.801 334.213 205.61 331.798 206.076L353.109 147.497L357.986 133.791C359.665 129.11 361.656 124.254 362.237 119.315C365.943 116.713 363.078 114.086 367.691 113.871Z"/><path fill="#F419FF" d="M372.435 146.676C374.609 141.001 377.222 135.838 380.517 130.706C381.798 128.711 383.364 127.18 384.54 125.312L384.694 125.064C388.605 127.73 393.61 133.785 395.412 138.165C392.174 140.208 393.839 143.05 391.649 145.814C390.675 147.042 388.725 148.247 387.947 149.389C382.721 147.436 378.038 146.387 372.435 146.676Z"/><path fill="#A209FF" d="M361.598 177.583C361.669 177.499 361.74 177.415 361.811 177.331C371.849 169.48 386.35 163.429 397.635 172.684C398.915 173.734 399.76 174.665 400.743 175.682C401.977 177.13 402.674 178.037 403.733 179.616C402.459 179.594 398.035 178.256 396.367 177.852C384.189 175.004 377.451 177.252 366.786 183.101C364.929 180.297 364.29 179.59 361.598 177.583Z"/><path fill="#F419FF" d="M387.947 149.389C388.725 148.247 390.675 147.042 391.649 145.814C393.839 143.05 392.174 140.208 395.412 138.165C400.189 145.31 402.513 155.56 403.694 163.943C403.833 165.136 404.037 165.754 403.51 166.821C402.775 165.83 401.459 163.397 400.805 162.268C397.11 155.889 394.651 152.669 387.947 149.389Z"/><path fill="#F419FF" d="M404.685 167.369L404.925 167.475C405.008 171.606 405.13 175.669 404.607 179.781L403.733 179.616C402.674 178.037 401.977 177.13 400.743 175.682C401.018 175.267 401.106 175.241 401.501 174.929C402.016 175.013 403.371 175.3 403.665 174.81C404.796 172.928 404.652 169.504 404.685 167.369Z"/><path fill="#F419FF" d="M404.239 158.597C404.577 161.513 405.013 164.552 404.925 167.475L404.685 167.369C403.785 167.207 403.984 167.384 403.51 166.821C404.037 165.754 403.833 165.136 403.694 163.943C404.726 162.685 403.395 161.378 404.239 158.597Z"/><path fill="#A209FF" d="M285.75 260.248C298.639 252.431 314.033 234.846 323.227 222.792C325.217 220.183 330.259 212.3 332.209 210.87C332.636 216.659 332.954 226.214 339.647 228.356C336.597 233.346 334.096 238.749 331.221 243.764C324.537 255.423 316.839 266.477 306.924 275.625C305.165 277.248 302.896 279.168 301.268 280.864C292.084 275.748 289.219 269.496 285.75 260.248Z"/><path fill="#F419FF" d="M313.356 116.273L314.279 119.724C299.753 126.116 289.786 135.104 277.643 145.029C274.697 147.436 270.867 149.851 268.177 152.175L266.913 152.794C266.635 150.139 266.75 146.464 266.509 143.435C268.3 142.511 273.377 138.051 275.478 136.532C285.51 129.28 301.136 118.39 313.356 116.273Z"/><path fill="#FE2169" d="M299.511 184.943L299.765 184.803C303.054 182.96 304.868 180.109 308.443 178.402L308.819 178.53L308.55 178.358L309.132 178.217C307.914 180.071 301.942 183.933 299.839 185.663L299.511 184.943Z"/><defs><linearGradient id="gradient_5" gradientUnits="userSpaceOnUse" x1="251.45547" y1="153.64536" x2="251.22585" y2="93.905441"><stop offset="0" stop-color="#F419FF"/><stop offset="1" stop-color="#FFC000"/></linearGradient></defs><path fill="url(#gradient_5)" d="M221.536 92.74C236.722 80.5274 252.26 74.478 271.93 76.6452C284.071 77.9468 295.179 84.078 302.75 93.658C303.861 95.0363 304.879 96.488 305.795 98.0031C309.098 103.496 311.695 110.095 313.356 116.273C301.136 118.39 285.51 129.28 275.478 136.532C273.377 138.051 268.3 142.511 266.509 143.435C265.234 136.708 263.656 129.557 257.491 125.656C237.159 112.787 223.422 141.426 217.471 155.594C215.586 154.46 211.392 153.513 209.094 152.629C199.494 148.94 196.264 144.064 190.73 136.437C190.4 135.327 190.105 133.966 189.388 133.094C197.195 117.562 208.142 103.821 221.536 92.74Z"/><path fill="#F419FF" d="M221.536 92.74C236.722 80.5274 252.26 74.478 271.93 76.6452C284.071 77.9468 295.179 84.078 302.75 93.658C303.861 95.0363 304.879 96.488 305.795 98.0031C304.776 99.1622 302.592 99.1391 301.142 99.281C292.392 100.138 284.475 97.3833 275.827 97.1239C266.166 96.8342 256.445 96.3184 246.763 96.2275C240.82 96.1717 234.841 96.8699 228.938 96.1495C225.868 95.7614 223.802 94.8099 221.536 92.74Z"/><path fill="#F419FF" d="M261.553 78.5666C272.242 78.0324 280.32 80.1984 289.75 84.9522C285.832 84.5301 282.941 84.9987 279.04 85.1775C276.555 85.2913 273.859 85.2299 271.357 85.1879C266.657 84.8871 246.472 84.7453 243.643 83.6763L243.571 83.2814C246.338 80.9028 257.616 78.8046 261.553 78.5666Z"/><defs><linearGradient id="gradient_6" gradientUnits="userSpaceOnUse" x1="289.03354" y1="295.22998" x2="288.55853" y2="305.75595"><stop offset="0" stop-color="#FB21FF" stop-opacity="0.50588238"/><stop offset="1" stop-color="#FF19CD" stop-opacity="0.54901963"/></linearGradient></defs><path fill="url(#gradient_6)" d="M335.455 302.758C333.559 303.242 330.319 302.977 328.132 303.371C326.647 303.639 323.315 305.26 322.311 305.336C318.514 305.609 314.721 305.494 310.9 305.682C295.463 306.442 279.968 306.433 264.524 305.973C261.136 305.872 259.4 304.542 256.218 303.886C253.142 303.251 249.864 303.42 246.751 303.063C245.873 302.939 238.634 301.005 238.256 300.746L238.15 300.066C238.322 299.75 238.423 299.41 238.783 299.282C249.555 295.467 261.906 295.949 273.116 295.726C287.39 295.316 301.673 295.37 315.943 295.889C320.373 296.057 328.075 296.1 331.996 297.142L331.806 297.904C331.169 298.146 330.747 298.142 330.077 298.198C332.224 298.858 335.479 298.765 337.324 299.473L337.469 299.829C336.256 300.201 331.604 300.301 330.24 301.064C329.905 301.705 329.955 301.378 330.061 302.075C331.246 303.013 333.867 302.775 335.455 302.758Z"/><path fill="#FF195E" fill-opacity="0.59215689" d="M331.996 297.142C334.344 297.5 339.111 297.887 340.704 299.574C341.22 301.519 336.935 302.532 335.455 302.758C333.867 302.775 331.246 303.013 330.061 302.075C329.955 301.378 329.905 301.705 330.24 301.064C331.604 300.301 336.256 300.201 337.469 299.829L337.324 299.473C335.479 298.765 332.224 298.858 330.077 298.198C330.747 298.142 331.169 298.146 331.806 297.904L331.996 297.142Z"/></svg>